# xmcd
#
# Track frame offsets:
#	150
#	25674
#	39312
#	57002
#	74001
#	93354
#	111070
#	128175
#	146876
#	163038
#	182843
#	212005
#	230651
#	251439
#	278480
#	299581
#
# Disc length: 4386 seconds
#
# Revision: 2
# Processed by: cddbd v1.5.1PL0 Copyright (c) Steve Scherf et al.
# Submitted via: audiograbber 1.83.01
#
DISCID=ec112010
DTITLE=The Mavericks - Live In Austin Texas
DYEAR=2004
DGENRE=Country
TTITLE0=Dance The Night Away
TTITLE1=Because Of You
TTITLE2=Think Of Me (When You're Lonely)
TTITLE3=Things You Said To Me
TTITLE4=Here Comes The Rain
TTITLE5=San Jose
TTITLE6=I Want To Know
TTITLE7=What A Crying Shame
TTITLE8=There Goes My Heart
TTITLE9=Shine Your Light
TTITLE10=Save A Prayer
TTITLE11=Siboney
TTITLE12=I Said I Love You
TTITLE13=Every Little Thing About You
TTITLE14=Volver Volver
TTITLE15=All You Ever Do Is Bring Me Down
EXTD=
EXTT0=
EXTT1=
EXTT2=
EXTT3=
EXTT4=
EXTT5=
EXTT6=
EXTT7=
EXTT8=
EXTT9=
EXTT10=
EXTT11=
EXTT12=
EXTT13=
EXTT14=
EXTT15=
PLAYORDER=
